<?xml version="1.0" encoding="utf-8"?>

<!-- Uploaded to: SVG Repo, www.svgrepo.com, Generator: SVG Repo Mixer Tools -->
<svg width="800px" height="800px" viewBox="-0.21 0 20.414 20.414" xmlns="http://www.w3.org/2000/svg">
  <g id="treadmill-2" transform="translate(-2 -1.586)">
    <path id="secondary" fill="#c8cccd" d="M18.17,21H5.11A2.12,2.12,0,0,1,3,18.89H3a2.11,2.11,0,0,1,1.88-2.1l13-1.44A2.84,2.84,0,0,1,21,18.17h0A2.83,2.83,0,0,1,18.17,21Z"/>
    <line id="primary" x1="1.73" y1="10.36" transform="translate(16 5)" fill="none" stroke="#9100f9" stroke-linecap="round" stroke-linejoin="round" stroke-width="2"/>
    <path id="primary-2" data-name="primary" d="M18,3,16,5H12" fill="none" stroke="#9100f9" stroke-linecap="round" stroke-linejoin="round" stroke-width="2"/>
    <path id="primary-3" data-name="primary" d="M18.17,21H5.11A2.12,2.12,0,0,1,3,18.89H3a2.11,2.11,0,0,1,1.88-2.1l13-1.44A2.84,2.84,0,0,1,21,18.17h0A2.83,2.83,0,0,1,18.17,21Z" fill="none" stroke="#9100f9" stroke-linecap="round" stroke-linejoin="round" stroke-width="2"/>
  </g>
</svg>