<?xml version="1.0" encoding="iso-8859-1"?>
<!-- Uploaded to: SVG Repo, www.svgrepo.com, Generator: SVG Repo Mixer Tools -->
<svg fill="#9100f9" height="800px" width="800px" version="1.1" id="Layer_1" xmlns="http://www.w3.org/2000/svg" xmlns:xlink="http://www.w3.org/1999/xlink" 
	 viewBox="0 0 512 512" xml:space="preserve">
<g>
	<g>
		<path d="M217.234,97.98c-19.017-3.064-36.915,9.87-39.978,28.88c-3.078,19.102,10.027,37.373,29.68,40.075l21.905-64.255v-0.64
			C225.339,100.063,221.436,98.658,217.234,97.98z"/>
	</g>
</g>
<g>
	<g>
		<path d="M298.533,255.089c-5.753-3.74-12.697-4.523-20.697-0.78v56.021c10.253,6.419,11.166,15.246,13.627,25.558l13.802,57.796
			l2.403-121.351C307.805,265.392,304.351,258.873,298.533,255.089z"/>
	</g>
</g>
<g>
	<g>
		<path d="M241.089,461.296v38.455c0,6.764,5.484,12.249,12.249,12.249s12.249-5.484,12.249-12.249v-14.68
			C254.492,481.386,245.276,472.815,241.089,461.296z"/>
	</g>
</g>
<g>
	<g>
		<path d="M255.293,197.938c-2.963,8.688-10.732,10.272-14.204,11.324v99.791c22.356-2.673,21.551-2.697,24.499-2.559V167.741
			C261.715,179.102,259.315,186.142,255.293,197.938z"/>
	</g>
</g>
<g>
	<g>
		<path d="M297.449,443.196l-24.567-102.872c-1.806-7.565-7.815-13.407-15.428-15l-55.429-11.601l26.816-3.206
			c0-19.787,0-79.38,0-97.55l-37.143,11.235l42.539-28.242c2.537-1.685,4.505-4.099,5.644-6.924l31.763-78.852
			c3.109-7.721-0.628-16.5-8.347-19.611c-7.725-3.111-16.5,0.628-19.611,8.347l-30.017,74.516l-34.453,22.875l17.109-16.664
			c-8.559,0.495-16.841,3.601-23.669,9.025c-9.231,7.334-14.95,18.215-15.754,29.978c-0.019,0.284-3.175,50.283-5.749,90.739
			c-1.242,19.516,11.98,37.036,31.1,41.133c15.051,3.225,33.15,7.06,54.497,11.529l21.608,90.481
			c2.578,10.791,13.416,17.452,24.212,14.875C293.367,464.829,300.027,453.99,297.449,443.196z"/>
	</g>
</g>
<g>
	<g>
		<path d="M314.788,145.419l-30.223-33.533c-0.361,1.32,0.512-1.319-11.089,32.714l4.36,4.837c0,22.308,0,16.464,0,41.785
			c40.091-27.233,33.481-22.734,34.427-23.402C319.777,162.532,320.714,151.994,314.788,145.419z"/>
	</g>
</g>
<g>
	<g>
		<path d="M501.44,0C436.112,0,75.734,0,10.561,0C5.02,0,0.528,4.491,0.528,10.032v21.092c0,5.541,4.491,10.032,10.033,10.032
			c44.41,0,217.813,0,230.529,0v25.719c-4.043-1.234-8.514-0.747-12.248,1.534c-8.226,5.025-9.54,16.089-3.355,22.95
			c3.651,4.051,2.728,3.026,5.235,5.808c6.199-18.185,22.362-23.062,34.867-19.346V41.155c8.239,0,188.075,0,235.852,0
			c5.54,0,10.033-4.491,10.033-10.032V10.033C511.472,4.491,506.981,0,501.44,0z"/>
	</g>
</g>
</svg>